<?xml version="1.0" standalone="no"?> 
<!DOCTYPE svg PUBLIC "-//W3C//DTD SVG 1.1//EN" "http://www.w3.org/Graphics/SVG/1.1/DTD/svg11.dtd">
<svg t="1527146120167" class="icon" style="" viewBox="0 0 1024 1024" version="1.1" xmlns="http://www.w3.org/2000/svg" p-id="4031" xmlns:xlink="http://www.w3.org/1999/xlink" width="42" height="42">
	<defs>
		<style type="text/css"></style>
	</defs>
	<g id="bottom">
		<path d="M507.733333 776.533333c-140.8 0-256-115.2-256-256H298.666667c0 115.2 93.866667 209.066667 209.066666 209.066667s209.066667-93.866667 209.066667-209.066667h46.933333c0 140.8-115.2 256-256 256z" fill="#044236" p-id="4032"></path>
		<path d="M486.4 750.933333h46.933333v179.2h-46.933333z" fill="#044236" p-id="4033"></path>
		<path d="M396.8 908.8h226.133333v46.933333H396.8z" fill="#044236" p-id="4034"></path>
	</g>
	<g id="botRect">
		<path d="M652.8 430.933333l-8.533333 123.733334-42.666667 68.266666-59.733333 34.133334-81.066667-8.533334-59.733333-25.6-29.866667-68.266666V371.2c29.866667-8.533333 68.266667-4.266667 110.933333 29.866667 38.4 29.866667 76.8 38.4 110.933334 38.4 21.333333 0 42.666667-4.266667 59.733333-8.533334z" fill="#0DE28B" p-id="4035"></path>
	</g>
	<g id="topRect">
		<path d="M648.533333 145.066667V384c-38.4 17.066667-89.6 21.333333-140.8-17.066667-51.2-42.666667-102.4-46.933333-145.066666-38.4l8.533333-174.933333 42.666667-68.266667 64-42.666666 81.066666 8.533333 55.466667 25.6 34.133333 68.266667z" fill="#ffffff" p-id="4036"></path>
	</g>
	<g id="外围椭圆">
		<path d="M507.733333 682.666667C413.866667 682.666667 341.333333 610.133333 341.333333 516.266667V183.466667C341.333333 89.6 418.133333 17.066667 507.733333 17.066667s166.4 76.8 166.4 166.4v332.8c0 93.866667-72.533333 166.4-166.4 166.4z m0-618.666667c-68.266667 0-119.466667 55.466667-119.466666 119.466667v332.8c0 68.266667 55.466667 119.466667 119.466666 119.466666s119.466667-55.466667 119.466667-119.466666V183.466667c0-64-51.2-119.466667-119.466667-119.466667z" fill="#044236" p-id="4037"></path>
	</g>
	<g id="cureLine">
		<path d="M657.066667 409.6v21.333333c-21.333333 8.533333-42.666667 12.8-64 12.8-38.4 0-76.8-12.8-110.933334-38.4-42.666667-34.133333-81.066667-38.4-110.933333-29.866666v-12.8h-4.266667v-38.4c42.666667-8.533333 89.6 0 145.066667 38.4 51.2 42.666667 102.4 34.133333 140.8 17.066666v25.6l4.266667 4.266667z" fill="#044236" p-id="4038"></path>
	</g>
	</svg>